<svg width="24" height="24" viewBox="0 0 24 24" fill="none" xmlns="http://www.w3.org/2000/svg">
<path d="M12 24C18.6274 24 24 18.6274 24 12C24 5.37258 18.6274 0 12 0C5.37258 0 0 5.37258 0 12C0 18.6274 5.37258 24 12 24Z" fill="#919EAB" fill-opacity="0.48"/>
<path d="M16.576 9.7106C16.2448 9.5162 15.8128 9.5162 15.4456 9.7106L12.8536 11.2118L11.0932 12.191L8.50116 13.6922C8.16996 13.8866 7.73796 13.8866 7.37076 13.6922L5.31156 12.5186C4.98036 12.3242 4.74636 11.9642 4.74636 11.5718V9.257C4.74636 8.8646 4.94436 8.5082 5.31156 8.3102L7.33836 7.169C7.66956 6.9746 8.10156 6.9746 8.46876 7.169L10.4956 8.3102C10.8268 8.5046 11.0608 8.8646 11.0608 9.257V10.7582L12.8212 9.7466V8.2454C12.8212 7.853 12.6232 7.4966 12.256 7.2986L8.50476 5.1458C8.17356 4.9514 7.74156 4.9514 7.37436 5.1458L3.55836 7.2986C3.19116 7.493 2.99316 7.853 2.99316 8.2454V12.5834C2.99316 12.9758 3.19116 13.3322 3.55836 13.5302L7.37796 15.683C7.70916 15.8774 8.14116 15.8774 8.50836 15.683L11.1004 14.2142L12.8608 13.2026L15.4528 11.7338C15.784 11.5394 16.216 11.5394 16.5832 11.7338L18.61 12.875C18.9412 13.0694 19.1752 13.4294 19.1752 13.8218V16.1366C19.1752 16.529 18.9772 16.8854 18.61 17.0834L16.5832 18.257C16.252 18.4514 15.82 18.4514 15.4528 18.257L13.426 17.1158C13.0948 16.9214 12.8608 16.5614 12.8608 16.169V14.6678L11.1004 15.6794V17.1806C11.1004 17.573 11.2984 17.9294 11.6656 18.1274L15.4852 20.2802C15.8164 20.4746 16.2484 20.4746 16.6156 20.2802L20.4352 18.1274C20.7664 17.933 21.0004 17.573 21.0004 17.1806V12.8426C21.0004 12.4502 20.8024 12.0938 20.4352 11.8958L16.576 9.7106Z" fill="white"/>
</svg>
