<svg width="24" height="24" viewBox="0 0 24 24" fill="none" xmlns="http://www.w3.org/2000/svg">
<g clip-path="url(#clip0_117_150362)">
<path d="M20.3303 4.50747C18.7535 3.79309 17.0889 3.28628 15.3789 3C15.1449 3.41393 14.9332 3.8398 14.7447 4.27584C12.9233 4.00424 11.071 4.00424 9.24963 4.27584C9.06097 3.83984 8.84926 3.41398 8.61537 3C6.90435 3.2887 5.23861 3.79671 3.6602 4.51121C0.526645 9.099 -0.322812 13.5729 0.101917 17.9832C1.937 19.3249 3.99099 20.3453 6.17459 21C6.66628 20.3456 7.10135 19.6514 7.47521 18.9247C6.76512 18.6622 6.07977 18.3384 5.42707 17.957C5.59885 17.8337 5.76685 17.7067 5.92919 17.5834C7.82839 18.4673 9.90126 18.9255 12 18.9255C14.0987 18.9255 16.1716 18.4673 18.0708 17.5834C18.235 17.7161 18.403 17.8431 18.5729 17.957C17.9189 18.339 17.2323 18.6635 16.521 18.9265C16.8944 19.6529 17.3295 20.3465 17.8216 21C20.0071 20.3479 22.0626 19.328 23.898 17.9851C24.3964 12.8705 23.0467 8.43773 20.3303 4.50747ZM8.0132 15.2709C6.82962 15.2709 5.8518 14.208 5.8518 12.9004C5.8518 11.5928 6.79564 10.5205 8.00942 10.5205C9.2232 10.5205 10.1935 11.5928 10.1727 12.9004C10.1519 14.208 9.21943 15.2709 8.0132 15.2709ZM15.9868 15.2709C14.8013 15.2709 13.8273 14.208 13.8273 12.9004C13.8273 11.5928 14.7711 10.5205 15.9868 10.5205C17.2024 10.5205 18.1652 11.5928 18.1444 12.9004C18.1236 14.208 17.193 15.2709 15.9868 15.2709Z" fill="#212B36"/>
</g>
<defs>
<clipPath id="clip0_117_150362">
<rect width="24" height="24" fill="white"/>
</clipPath>
</defs>
</svg>
