<svg width="24" height="18" viewBox="0 0 24 18" fill="none" xmlns="http://www.w3.org/2000/svg">
<path d="M10.802 14.77C10.8943 14.7701 10.9857 14.7884 11.0709 14.8239C11.1562 14.8593 11.2336 14.9112 11.2988 14.9766C11.364 15.042 11.4156 15.1196 11.4509 15.2049C11.4861 15.2902 11.5041 15.3817 11.504 15.474C11.5038 15.5663 11.4855 15.6577 11.4501 15.743C11.4146 15.8282 11.3627 15.9056 11.2974 15.9708C11.232 16.036 11.1544 16.0877 11.0691 16.1229C10.9837 16.1581 10.8923 16.1761 10.8 16.176C10.6135 16.1757 10.4348 16.1014 10.3032 15.9694C10.1715 15.8374 10.0977 15.6585 10.098 15.472C10.0982 15.2856 10.1726 15.1069 10.3046 14.9752C10.4366 14.8435 10.6155 14.7697 10.802 14.77ZM21.826 10.423C21.7337 10.4229 21.6423 10.4047 21.557 10.3693C21.4717 10.3339 21.3943 10.2821 21.329 10.2167C21.2638 10.1514 21.2121 10.0739 21.1768 9.98857C21.1415 9.90325 21.1234 9.81182 21.1235 9.7195C21.1235 9.62718 21.1418 9.53578 21.1772 9.45052C21.2126 9.36525 21.2644 9.28779 21.3297 9.22255C21.3951 9.15732 21.4726 9.10559 21.5579 9.07032C21.6432 9.03506 21.7347 9.01694 21.827 9.017C22.0134 9.01714 22.1922 9.09133 22.3239 9.22326C22.4557 9.35519 22.5296 9.53406 22.5295 9.7205C22.5293 9.90695 22.4552 10.0857 22.3232 10.2175C22.1913 10.3492 22.0124 10.4231 21.826 10.423ZM21.826 7.547C21.2496 7.54753 20.6969 7.77675 20.2893 8.18434C19.8817 8.59193 19.6525 9.14459 19.652 9.721C19.652 9.954 19.691 10.186 19.767 10.412L12.586 14.235C12.3869 13.9459 12.1204 13.7095 11.8096 13.5463C11.4989 13.3831 11.153 13.2978 10.802 13.298C9.97298 13.298 9.21798 13.773 8.85198 14.514L2.40098 11.112C1.71898 10.754 1.20898 9.632 1.26298 8.61C1.29098 8.077 1.47498 7.663 1.75598 7.503C1.93398 7.403 2.14798 7.411 2.37598 7.53L2.41798 7.553C4.12798 8.453 9.72198 11.4 9.95798 11.509C10.321 11.678 10.523 11.746 11.143 11.452L22.707 5.438C22.877 5.374 23.075 5.211 23.075 4.964C23.075 4.622 22.721 4.487 22.72 4.487C22.062 4.172 21.051 3.699 20.065 3.237C17.957 2.25 15.568 1.132 14.519 0.582004C13.613 0.108004 12.884 0.508004 12.754 0.588004L12.502 0.713004C7.77998 3.048 1.45998 6.178 1.09998 6.397C0.456982 6.789 0.0579816 7.57 0.00598162 8.539C-0.0740184 10.076 0.708982 11.679 1.82998 12.266L8.65198 15.784C8.72713 16.3008 8.9857 16.7733 9.38045 17.1151C9.7752 17.457 10.2798 17.6454 10.802 17.646C11.3723 17.645 11.9195 17.4203 12.3258 17.0201C12.7322 16.6199 12.9653 16.0763 12.975 15.506L20.489 11.433C20.869 11.731 21.342 11.894 21.826 11.894C22.4024 11.8935 22.9551 11.6643 23.3626 11.2567C23.7702 10.8491 23.9995 10.2964 24 9.72C23.9995 9.14359 23.7702 8.59093 23.3626 8.18334C22.9551 7.77575 22.4024 7.54653 21.826 7.546" fill="#212B36"/>
</svg>
