<svg width="24" height="24" viewBox="0 0 24 24" fill="none" xmlns="http://www.w3.org/2000/svg">
<path fill-rule="evenodd" clip-rule="evenodd" d="M12 1C5.925 1 1 5.925 1 12C1 18.075 5.925 23 12 23C18.075 23 23 18.075 23 12C23 5.925 18.075 1 12 1ZM7.5 10.435C7.5 7.433 8.962 6 12 6C15.038 6 16.5 7.433 16.5 10.435V17.327C16.4989 17.5064 16.4267 17.678 16.2992 17.8042C16.1717 17.9304 15.9994 18.0008 15.82 18H8.18C8.00062 18.0008 7.82826 17.9304 7.70076 17.8042C7.57326 17.678 7.50106 17.5064 7.5 17.327V10.435Z" fill="#212B36"/>
</svg>
