<svg width="22" height="20" viewBox="0 0 22 20" fill="none" xmlns="http://www.w3.org/2000/svg">
<path d="M6.20038 19.4926C9.84923 19.6113 13.3924 18.2906 16.0241 15.8309C18.6558 13.3711 20.1523 9.98144 20.1733 6.43265C21.001 5.43702 21.6156 4.29061 21.981 3.06079C22.0367 2.86231 21.9674 2.65053 21.804 2.51983C21.6405 2.38913 21.4134 2.36386 21.2237 2.45529C20.3358 2.87075 19.2742 2.6892 18.5855 2.00412C17.7192 1.08201 16.5057 0.540171 15.2217 0.502145C13.9376 0.464118 12.6924 0.933141 11.77 1.80229C10.4985 2.99929 9.96542 4.75654 10.3654 6.43265C6.27366 6.6701 3.46442 4.78234 1.21702 2.19409C1.07906 2.04222 0.861769 1.98402 0.663259 2.04577C0.46475 2.10752 0.322586 2.27752 0.300958 2.47903C-0.575874 7.20694 1.66511 11.9662 5.91945 14.4111C4.5266 15.9639 2.5706 16.9337 0.459741 17.1181C0.227893 17.1555 0.0461423 17.332 0.00750603 17.5573C-0.0311302 17.7827 0.0818974 18.007 0.288744 18.1154C2.12516 19.0075 4.14747 19.4786 6.20038 19.4926Z" fill="#212B36"/>
</svg>
