<svg width="172" height="20" viewBox="0 0 172 20" fill="none" xmlns="http://www.w3.org/2000/svg">
<path d="M36.4648 0.435547L38.5678 4.47132L40.6414 8.5864H40.8522L42.9553 4.52419L45.0847 0.435547H49.9712L42.8189 12.2785V19.6626H38.6872V12.2785L31.5628 0.435547H36.4648Z" fill="black"/>
<path d="M51.0251 0.435547H66.0844V4.02342H60.5904V19.6626H56.4664V4.02342H51.0251V0.435547Z" fill="black"/>
<path d="M72.0435 0.435547L74.145 4.47132L76.2187 8.5864H76.4294L78.5325 4.52419L80.6619 0.435547H85.5499L78.3992 12.2785V19.6626H74.2783V12.2785L67.1524 0.435547H72.042H72.0435Z" fill="black"/>
<path d="M15.7242 19.9984C12.8819 19.9984 11.1848 18.3064 11.1848 15.4712V4.66718C11.1848 4.22395 10.9524 3.94868 10.5789 3.94868C10.4673 3.94868 10.1294 3.94868 9.88612 4.53188L4.32082 19.6625H0L5.87681 3.75117C6.74779 1.16019 8.22784 0 10.6688 0C13.5281 0 15.236 1.68118 15.236 4.49922V15.3328C15.236 15.7589 15.4576 16.0233 15.8141 16.0233C15.9753 16.0233 16.1256 15.9736 16.2527 15.8802C16.3782 15.7869 16.4727 15.6532 16.5192 15.5039L21.119 3.74961C21.9884 1.16019 23.4685 0 25.9094 0C28.7688 0 30.4766 1.68118 30.4766 4.49922V19.6625H26.4022V4.66718C26.4022 4.21617 26.1868 3.94868 25.8242 3.94868C25.5266 3.94868 25.2632 4.16485 25.1392 4.51322L20.5456 16.2519C19.687 18.8056 18.1527 20 15.7226 20L15.7242 19.9984Z" fill="black"/>
<path d="M103.442 19.462C105.619 19.462 107.342 18.977 108.611 18.0069C109.896 17.0195 110.539 15.6597 110.539 13.9274C110.539 12.9747 110.368 12.1865 110.025 11.5629C109.699 10.9219 109.279 10.4109 108.765 10.0298C108.268 9.64871 107.736 9.36289 107.171 9.17234C106.622 8.96447 106.116 8.80857 105.654 8.70463L102.568 8.00306C102.259 7.93377 101.908 7.8385 101.514 7.71724C101.137 7.59598 100.777 7.42275 100.434 7.19756C100.091 6.97237 99.7994 6.67788 99.5594 6.31411C99.3366 5.95033 99.2251 5.49128 99.2251 4.93695C99.2251 4.00153 99.5851 3.25666 100.305 2.70233C101.025 2.13069 102.037 1.84486 103.339 1.84486C104.676 1.84486 105.748 2.14801 106.554 2.7543C107.359 3.34327 107.796 4.25271 107.865 5.48262H110.154C110.119 3.83697 109.536 2.51178 108.405 1.50707C107.274 0.502356 105.645 0 103.519 0C102.182 0 101.008 0.216533 99.9965 0.649599C99.0023 1.08267 98.2223 1.68896 97.6566 2.46848C97.108 3.248 96.8337 4.1661 96.8337 5.22278C96.8337 6.1582 97.0137 6.92906 97.3737 7.53535C97.7337 8.12432 98.1794 8.59203 98.7108 8.93849C99.2594 9.28494 99.8251 9.55344 100.408 9.74399C100.991 9.91722 101.505 10.0558 101.951 10.1597L105.165 10.9393C105.405 10.9912 105.688 11.0778 106.014 11.1991C106.356 11.303 106.691 11.4676 107.016 11.6928C107.342 11.918 107.608 12.2211 107.814 12.6022C108.036 12.966 108.148 13.4424 108.148 14.0313C108.148 15.088 107.736 15.9455 106.914 16.6038C106.091 17.262 104.934 17.5911 103.442 17.5911C100.237 17.5911 98.5823 16.1794 98.4794 13.3558H96.1652C96.1823 14.5337 96.4566 15.5904 96.988 16.5258C97.5366 17.4439 98.3423 18.1628 99.4051 18.6825C100.485 19.2022 101.831 19.462 103.442 19.462Z" fill="black"/>
<path d="M112.839 7.50937H115.282V17.2274C115.282 17.9722 115.453 18.4919 115.796 18.7864C116.156 19.0636 116.645 19.2022 117.262 19.2022H120.27V17.3573H117.442V7.50937H120.244V5.63852H117.442V1.14329H115.282V5.63852H112.839V7.50937Z" fill="black"/>
<path d="M127.634 19.462C128.8 19.462 129.743 19.2108 130.463 18.7085C131.2 18.2061 131.757 17.5305 132.134 16.6817H132.314L132.545 19.2022H134.5V5.63852H132.34V13.5376C132.34 14.7329 131.997 15.6943 131.311 16.4219C130.643 17.1321 129.725 17.4872 128.56 17.4872C127.274 17.4872 126.383 17.1408 125.886 16.4479C125.406 15.7549 125.166 14.8542 125.166 13.7455V5.63852H123.006V14.3691C123.006 15.9801 123.426 17.236 124.266 18.1368C125.106 19.0203 126.228 19.462 127.634 19.462Z" fill="black"/>
<path d="M143.15 19.462C144.281 19.462 145.241 19.2108 146.03 18.7085C146.836 18.2061 147.427 17.5392 147.804 16.7077H147.984L148.164 19.2022H150.144V0.25984H147.984V8.23692H147.804C147.478 7.37079 146.887 6.67788 146.03 6.1582C145.19 5.63852 144.204 5.37868 143.073 5.37868C141.41 5.37868 140.073 5.89836 139.061 6.93772C138.05 7.97708 137.544 9.47549 137.544 11.4329V13.2778C137.544 15.166 138.033 16.673 139.01 17.799C140.004 18.9077 141.384 19.462 143.15 19.462ZM143.716 17.4872C142.361 17.4872 141.358 17.0888 140.707 16.292C140.056 15.4778 139.73 14.4557 139.73 13.2258V11.4849C139.73 10.1337 140.09 9.10305 140.81 8.39282C141.547 7.68259 142.524 7.32748 143.741 7.32748C144.581 7.32748 145.31 7.50937 145.927 7.87314C146.561 8.2196 147.058 8.70463 147.418 9.32824C147.778 9.95186 147.958 10.6708 147.958 11.4849V13.2258C147.958 14.04 147.778 14.7762 147.418 15.4345C147.058 16.0754 146.561 16.5778 145.927 16.9415C145.293 17.3053 144.556 17.4872 143.716 17.4872Z" fill="black"/>
<path d="M154.135 3.27398H156.295V0.25984H154.135V3.27398ZM154.135 19.2022H156.295V5.63852H154.135V19.2022Z" fill="black"/>
<path d="M165.501 19.462C166.752 19.462 167.841 19.2108 168.766 18.7085C169.692 18.2061 170.412 17.5132 170.926 16.6297C171.458 15.729 171.723 14.6809 171.723 13.4857V11.381C171.723 10.1684 171.458 9.12037 170.926 8.23692C170.412 7.33614 169.684 6.63457 168.741 6.13222C167.815 5.62986 166.735 5.37868 165.501 5.37868C164.284 5.37868 163.204 5.62986 162.261 6.13222C161.335 6.63457 160.606 7.33614 160.075 8.23692C159.561 9.12037 159.304 10.1684 159.304 11.381V13.4857C159.304 14.6809 159.561 15.729 160.075 16.6297C160.606 17.5132 161.335 18.2061 162.261 18.7085C163.186 19.2108 164.266 19.462 165.501 19.462ZM165.501 17.5132C164.318 17.5132 163.349 17.1581 162.595 16.4479C161.858 15.7376 161.489 14.6463 161.489 13.1739V11.6668C161.489 10.2117 161.858 9.12904 162.595 8.41881C163.332 7.69126 164.301 7.32748 165.501 7.32748C166.718 7.32748 167.695 7.69126 168.432 8.41881C169.169 9.12904 169.538 10.2117 169.538 11.6668V13.1739C169.538 14.6463 169.161 15.7376 168.406 16.4479C167.669 17.1581 166.701 17.5132 165.501 17.5132Z" fill="black"/>
</svg>
